<?xml version="1.0" encoding="utf-8"?>
<!-- Generator: Adobe Illustrator 23.0.1, SVG Export Plug-In . SVG Version: 6.00 Build 0)  -->
<svg version="1.1" id="Warstwa_1" xmlns="http://www.w3.org/2000/svg" xmlns:xlink="http://www.w3.org/1999/xlink" x="0px" y="0px"
	 viewBox="0 0 200 200" style="enable-background:new 0 0 200 200;" xml:space="preserve">
<style type="text/css">
	.st0{fill:#DD3A46;}
</style>
<path class="st0" d="M26.47,72.9h-8.01C8.28,72.9,0,81.19,0,91.38v13.66c0,0.38,0.09,0.75,0.26,1.09l7.75,15.53v39.83
	c0,1.35,1.09,2.44,2.44,2.44s2.44-1.09,2.44-2.44v-40.4c0-0.38-0.09-0.75-0.26-1.09l-7.75-15.53V91.38c0-7.5,6.09-13.6,13.58-13.6
	h8.01c7.49,0,13.58,6.1,13.58,13.6v13.09L32.3,120c-0.17,0.34-0.26,0.71-0.26,1.09v32.38c0,1.35,1.09,2.44,2.44,2.44
	s2.44-1.09,2.44-2.44v-31.81l7.75-15.53c0.17-0.34,0.26-0.71,0.26-1.09V91.38C44.93,81.19,36.65,72.9,26.47,72.9z"/>
<path class="st0" d="M22.47,65.01c7.97,0,14.46-6.49,14.46-14.47c0-7.98-6.49-14.47-14.46-14.47c-7.97,0-14.45,6.49-14.45,14.47
	C8.01,58.52,14.5,65.01,22.47,65.01z M22.47,40.95c5.28,0,9.58,4.3,9.58,9.59s-4.3,9.59-9.58,9.59c-5.28,0-9.58-4.3-9.58-9.59
	S17.18,40.95,22.47,40.95z"/>
<path class="st0" d="M181.54,72.9h-8.01c-10.18,0-18.46,8.29-18.46,18.48v13.66c0,0.38,0.09,0.75,0.26,1.09l7.75,15.53v39.83
	c0,1.35,1.09,2.44,2.44,2.44c1.35,0,2.44-1.09,2.44-2.44v-40.4c0-0.38-0.09-0.75-0.26-1.09l-7.75-15.53V91.38
	c0-7.5,6.09-13.6,13.58-13.6h8.01c7.49,0,13.58,6.1,13.58,13.6v13.09L187.37,120c-0.17,0.34-0.26,0.71-0.26,1.09v32.38
	c0,1.35,1.09,2.44,2.44,2.44s2.44-1.09,2.44-2.44v-31.81l7.75-15.53c0.17-0.34,0.26-0.71,0.26-1.09V91.38
	C200,81.19,191.72,72.9,181.54,72.9z"/>
<path class="st0" d="M177.53,65.01c7.97,0,14.46-6.49,14.46-14.47c0-7.98-6.49-14.47-14.46-14.47c-7.97,0-14.45,6.49-14.45,14.47
	C163.08,58.52,169.56,65.01,177.53,65.01z M177.53,40.95c5.28,0,9.58,4.3,9.58,9.59s-4.3,9.59-9.58,9.59c-5.28,0-9.58-4.3-9.58-9.59
	S172.25,40.95,177.53,40.95z"/>
<path class="st0" d="M143.13,96.79H62.21c-3.56,0-6.46,2.9-6.46,6.47v0.73c0,3.57,2.9,6.47,6.46,6.47h28.45l5.94,41.81l-8.53,2.65
	c-1.02,0.32-1.71,1.26-1.71,2.33v4.25c0,1.35,1.09,2.44,2.44,2.44h25.71c1.35,0,2.44-1.09,2.44-2.44v-4.25
	c0-1.07-0.7-2.01-1.71-2.33l-8.52-2.65l5.94-41.81h30.49c3.56,0,6.46-2.9,6.46-6.47v-0.73C149.59,99.69,146.69,96.79,143.13,96.79z
	 M91.23,159.05l8.44-2.63h3.95l8.44,2.62L91.23,159.05z M101.88,151.53h-0.46l-5.84-41.08h12.13L101.88,151.53z M144.71,103.99
	c0,0.87-0.71,1.59-1.58,1.59h-32.6H92.77H62.21c-0.87,0-1.58-0.71-1.58-1.59v-0.73c0-0.87,0.71-1.59,1.58-1.59h80.92
	c0.87,0,1.58,0.71,1.58,1.59V103.99z"/>
</svg>
