<?xml version="1.0" encoding="utf-8"?>
<!-- Generator: Adobe Illustrator 23.0.1, SVG Export Plug-In . SVG Version: 6.00 Build 0)  -->
<svg version="1.1" id="Warstwa_1" xmlns="http://www.w3.org/2000/svg" xmlns:xlink="http://www.w3.org/1999/xlink" x="0px" y="0px"
	 viewBox="0 0 200 200" style="enable-background:new 0 0 200 200;" xml:space="preserve">
<style type="text/css">
	.st0{fill:#DD3A46;}
</style>
<path class="st0" d="M186.9,20.06h-65.59c-7.22,0-13.1,5.88-13.1,13.1v133.68c0,7.22,5.88,13.1,13.1,13.1h65.59
	c7.22,0,13.1-5.88,13.1-13.1V33.16C200,25.94,194.12,20.06,186.9,20.06z M193.89,166.84c0,3.86-3.14,6.99-6.99,6.99h-65.59
	c-3.86,0-6.99-3.14-6.99-6.99V33.16c0-3.86,3.14-6.99,6.99-6.99h65.59c3.86,0,6.99,3.14,6.99,6.99V166.84z"/>
<path class="st0" d="M187.1,97.25h-10.91c-1.69,0-3.05,1.37-3.05,3.05c0,1.69,1.37,3.05,3.05,3.05h10.91c1.69,0,3.05-1.37,3.05-3.05
	C190.15,98.62,188.78,97.25,187.1,97.25z"/>
<path class="st0" d="M79.31,75.02c0,0-10.34-3.03-15.33-4.48l0.08-10.85c0-0.72-0.25-1.42-0.71-1.98l-5.93-7.11
	c0.92-0.76,1.76-1.62,2.48-2.63c2.17-3.04,3.03-6.74,2.41-10.41c-0.61-3.68-2.62-6.9-5.66-9.07c-3.03-2.17-6.74-3.03-10.41-2.41
	c-3.68,0.61-6.9,2.62-9.07,5.66c-3.78,5.3-3.28,12.35,0.74,17.11l-6.8,2.99c-0.36,0.16-0.69,0.39-0.96,0.67l-14.8,15.26
	c-2.9,2.72-4.21,6.18-3.78,10.09L14,96.03c0.02,0.26,0.06,0.52,0.11,0.76c0.41,2.1,1.59,3.95,3.32,5.22
	c1.47,1.08,3.24,1.65,5.03,1.65c0.56,0,1.12-0.05,1.67-0.16c3.19-0.64,5.64-3.06,6.5-6.07c-0.18,6.81-0.31,11.88-0.32,12.24
	c-0.17,0.86-3.87,19.14-4.85,24.15L3.44,151.88c-1.9,1.45-3.14,3.63-3.38,5.99c-0.17,1.49,0.06,3,0.66,4.38
	c0.35,0.8,0.81,1.54,1.38,2.22c1.73,2.02,4.2,3.07,6.66,3.06c1.82,0,3.64-0.57,5.15-1.73l28.58-19.88c0.99-0.76,1.66-1.87,1.88-3.09
	l3.67-10.21l14.11,40.79c0.37,1.41,1.1,2.71,2.09,3.76c1.67,1.78,4.02,2.76,6.42,2.76c0.6,0,1.19-0.06,1.79-0.18
	c2.32-0.49,4.3-1.85,5.58-3.84c1.29-1.99,1.71-4.37,1.18-6.74c-0.14-0.61-14.14-59.69-15.44-65.36l0.11-15.86l11.32,3.01
	c0.62,0.15,1.26,0.22,1.9,0.22c0.72,0,1.44-0.1,2.12-0.28c2.8-0.75,4.96-2.86,5.77-5.63c0.62-2.13,0.38-4.37-0.7-6.31
	C83.2,77.01,81.43,75.61,79.31,75.02z M42.13,35.29c1.22-1.71,3.04-2.84,5.11-3.19c0.44-0.07,0.88-0.11,1.31-0.11
	c1.63,0,3.2,0.5,4.55,1.47c1.71,1.22,2.84,3.03,3.19,5.11c0.35,2.07-0.14,4.15-1.36,5.86c-2.08,2.91-5.85,4.05-9.2,2.77c0,0,0,0,0,0
	c-0.62-0.24-1.21-0.55-1.76-0.95C40.44,43.73,39.62,38.81,42.13,35.29z M28.83,79.14l2.33-1.79c-0.13,5.1-0.27,10.56-0.4,15.51
	L28.83,79.14z M73.24,170.54c0.16,0.73,0.04,1.44-0.36,2.06c-0.39,0.61-0.99,1.02-1.7,1.17c-0.9,0.19-1.86-0.1-2.5-0.79
	c-0.31-0.32-0.52-0.7-0.7-1.35L45.87,107.7c-0.55-1.59-2.29-2.43-3.88-1.89c-1.59,0.55-2.44,2.29-1.89,3.88l4.75,13.72l-6.34,17.64
	c-0.03,0.08-0.05,0.16-0.08,0.24l-28.13,19.57c-1.1,0.84-2.67,0.68-3.56-0.36c-0.17-0.2-0.31-0.43-0.42-0.68
	c-0.17-0.41-0.25-0.86-0.19-1.3c0.08-0.71,0.44-1.36,1.1-1.86l22.97-18.85c0.56-0.47,0.95-1.12,1.07-1.84
	c0.25-1.45,3.4-17.07,5.07-25.37c0.06-0.51,0.41-13.32,1.05-38.05l4.58-3.51c1.34-1.03,1.59-2.94,0.56-4.28
	c-1.02-1.34-2.94-1.59-4.28-0.56L23.7,75.38c-0.87,0.67-1.32,1.76-1.17,2.85l2.33,16.61c0.14,1.22-0.73,2.42-1.94,2.66
	c-0.64,0.13-1.35-0.02-1.89-0.42c-0.48-0.35-0.82-0.89-0.98-1.76l-2.43-18.21c-0.21-1.93,0.39-3.49,2-5l14.49-14.93l9.62-4.23
	c1.57,0.57,3.19,0.87,4.79,0.87c1.11,0,2.22-0.14,3.29-0.4l6.12,7.34l-0.3,43.37c0,0.23,0.02,0.46,0.07,0.68
	C58.37,107.77,72.64,168.02,73.24,170.54z M79.11,83.55c-0.21,0.72-0.77,1.26-1.5,1.46c-0.33,0.09-0.68,0.1-0.95,0.03L63.9,81.64
	l0.03-4.76c5.3,1.54,13.66,4,13.69,4c0.57,0.16,1.03,0.51,1.31,1.03C79.21,82.42,79.27,82.98,79.11,83.55z"/>
</svg>
