<?xml version="1.0" encoding="utf-8"?>
<!-- Generator: Adobe Illustrator 23.0.1, SVG Export Plug-In . SVG Version: 6.00 Build 0)  -->
<svg version="1.1" id="Warstwa_1" xmlns="http://www.w3.org/2000/svg" xmlns:xlink="http://www.w3.org/1999/xlink" x="0px" y="0px"
	 viewBox="0 0 200 200" style="enable-background:new 0 0 200 200;" xml:space="preserve">
<style type="text/css">
	.st0{fill:#DD3A46;}
</style>
<path class="st0" d="M100,0C44.86,0,0,44.86,0,100c0,55.14,44.86,100,100,100c55.14,0,100-44.86,100-100C200,44.86,155.14,0,100,0z
	 M100,192.36c-50.93,0-92.36-41.43-92.36-92.36C7.64,49.07,49.07,7.64,100,7.64c50.93,0,92.36,41.43,92.36,92.36
	C192.36,150.93,150.93,192.36,100,192.36z"/>
<path class="st0" d="M19.99,96.14c-2.2,0-3.99,1.81-3.99,4.05c0,2.17,1.79,3.94,3.99,3.94s3.99-1.79,3.99-3.99
	C23.99,97.97,22.16,96.14,19.99,96.14z"/>
<path class="st0" d="M59.77,34.81c0.81,0,1.53-0.21,2-0.55c0.92-0.54,1.61-1.44,1.87-2.48c0.26-1.03,0.1-2.09-0.41-2.92
	c-0.5-0.92-1.33-1.59-2.35-1.87c-1.03-0.29-2.17-0.15-3.07,0.38c-0.92,0.5-1.59,1.34-1.87,2.36c-0.29,1.03-0.14,2.16,0.4,3.09
	C57.02,34.05,58.34,34.81,59.77,34.81z"/>
<path class="st0" d="M28.6,63.64l0.08,0.04c0.61,0.3,1.24,0.45,1.86,0.45c1.46,0,2.8-0.77,3.5-1.99c0.54-0.93,0.68-2.01,0.38-3.05
	c-0.29-1.03-0.98-1.9-1.88-2.39c-0.92-0.54-1.98-0.69-3.01-0.42c-1.02,0.27-1.88,0.93-2.42,1.85c-0.54,0.93-0.68,2.02-0.39,3.06
	C27.01,62.24,27.68,63.1,28.6,63.64z"/>
<path class="st0" d="M28.76,136.63c-1.87,1.09-2.55,3.54-1.51,5.46l0.04,0.07c0.79,1.24,2.05,1.96,3.48,1.96
	c0.58,0,1.23-0.17,2-0.56c0.93-0.55,1.6-1.43,1.86-2.48c0.26-1.03,0.1-2.09-0.43-2.96C33.1,136.23,30.67,135.55,28.76,136.63z"/>
<path class="st0" d="M99.76,23.99c2.17,0,3.94-1.79,3.94-3.99c0-2.24-1.76-3.99-3.99-3.99c-2.24,0-3.99,1.76-3.99,3.99v0.04
	C95.79,22.25,97.57,23.99,99.76,23.99z"/>
<path class="st0" d="M171.29,136.52c-1.93-1.11-4.39-0.47-5.52,1.47c-1.05,1.95-0.37,4.36,1.51,5.41c0.61,0.37,1.26,0.55,2,0.55
	c1.43,0,2.75-0.77,3.44-1.99c0.54-0.92,0.69-1.99,0.42-3.02C172.88,137.92,172.22,137.06,171.29,136.52z"/>
<path class="st0" d="M165.66,61.74c0.75,1.21,2.08,1.96,3.47,1.96c0.73,0,1.43-0.2,2-0.56c1.92-1.12,2.56-3.51,1.44-5.45
	c-0.55-0.93-1.43-1.6-2.49-1.86c-1.04-0.25-2.09-0.09-2.95,0.43c-1.9,1.1-2.57,3.48-1.51,5.41L165.66,61.74z"/>
<path class="st0" d="M183.95,98.7h-0.11c-0.42-1.77-1.97-3.04-3.88-3.04c-1.88,0-3.45,1.3-3.88,3.04l-0.11,1.28
	c0,2.2,1.79,3.99,3.99,3.99c2.23,0,4.04-1.79,4.04-3.99L183.95,98.7z"/>
<path class="st0" d="M100.03,176.02c-1.07,0-2.11,0.44-2.85,1.21c-0.73,0.76-1.11,1.76-1.08,2.8c0.02,2.19,1.8,3.97,3.99,3.97
	c2.16,0,3.99-1.83,3.99-3.99C104.08,177.81,102.26,176.02,100.03,176.02z"/>
<path class="st0" d="M62.09,165.91c-1.91-1.12-4.39-0.48-5.5,1.43c-1.12,1.92-0.49,4.31,1.43,5.44c0.76,0.46,1.51,0.56,2.01,0.56
	c1.43,0,2.7-0.71,3.52-2.02C64.6,169.37,63.94,166.94,62.09,165.91z"/>
<path class="st0" d="M141.04,165.38c-1.02-0.27-2.09-0.12-3.02,0.42c-0.92,0.54-1.58,1.4-1.85,2.44c-0.27,1.04-0.13,2.12,0.41,3.05
	c0.68,1.2,1.99,1.94,3.44,1.94c0.69,0,1.32-0.15,2-0.5c0.92-0.54,1.59-1.41,1.85-2.45c0.27-1.04,0.12-2.12-0.42-3.05
	C142.92,166.31,142.06,165.65,141.04,165.38z"/>
<path class="st0" d="M137.75,33.99c0.61,0.37,1.26,0.56,2,0.56c1.44,0,2.76-0.77,3.44-1.99c0.55-0.93,0.69-2.06,0.4-3.1
	c-0.28-1.02-0.95-1.86-1.83-2.34c-0.95-0.55-2.07-0.69-3.11-0.4c-1.02,0.28-1.85,0.95-2.33,1.84c-0.55,0.94-0.69,2.07-0.4,3.1
	C136.19,32.66,136.84,33.49,137.75,33.99z"/>
<path class="st0" d="M103.82,98.8V36.74c0-2.11-1.71-3.82-3.82-3.82c-2.11,0-3.82,1.71-3.82,3.82V100c0,0.79,0.24,1.55,0.69,2.19
	l22.04,31.49c0.74,1.06,1.93,1.63,3.13,1.63c0.76,0,1.52-0.22,2.18-0.69c1.73-1.21,2.15-3.59,0.94-5.32L103.82,98.8z"/>
</svg>
